<svg width="100" height="100" viewBox="0 0 100 100" fill="none" xmlns="http://www.w3.org/2000/svg">
<path fill-rule="evenodd" clip-rule="evenodd" d="M51.5417 78.0417C52.0186 77.9397 52.4681 77.7369 52.8601 77.4468C53.2521 77.1567 53.5774 76.786 53.8143 76.3597C54.0511 75.9335 54.1939 75.4614 54.2331 74.9753C54.2724 74.4893 54.2071 74.0004 54.0417 73.5417C53.7596 72.9172 53.3024 72.388 52.7255 72.0183C52.1486 71.6485 51.4769 71.454 50.7917 71.4583C49.9359 71.4533 49.1087 71.7657 48.4699 72.3352C47.8311 72.9048 47.4262 73.6909 47.3334 74.5417C47.3445 75.0605 47.4669 75.5708 47.6922 76.0382C47.9175 76.5057 48.2406 76.9193 48.6396 77.2511C49.0386 77.5829 49.5041 77.8252 50.0048 77.9616C50.5055 78.098 51.0296 78.1253 51.5417 78.0417Z" fill="black"/>
<path fill-rule="evenodd" clip-rule="evenodd" d="M20.5 21.875C19.6332 21.87 18.7954 22.1869 18.1488 22.7642C17.5022 23.3415 17.0929 24.1382 17 25C17.0177 25.5111 17.1434 26.0127 17.3688 26.4718C17.5941 26.9309 17.9141 27.3371 18.3076 27.6637C18.7012 27.9904 19.1594 28.23 19.6521 28.367C20.1449 28.5039 20.661 28.5351 21.1667 28.4583C21.6545 28.3732 22.1176 28.1817 22.5231 27.8975C22.9287 27.6133 23.2667 27.2434 23.5132 26.8139C23.7598 26.3845 23.9088 25.906 23.9497 25.4125C23.9906 24.919 23.9224 24.4225 23.75 23.9583C23.4679 23.3339 23.0107 22.8047 22.4338 22.435C21.8569 22.0652 21.1852 21.8707 20.5 21.875Z" fill="black"/>
<path fill-rule="evenodd" clip-rule="evenodd" d="M31.2917 21.875C30.4294 21.871 29.5968 22.1892 28.957 22.7673C28.3172 23.3454 27.9165 24.1417 27.8334 25C27.8511 25.5111 27.9768 26.0127 28.2021 26.4718C28.4275 26.9309 28.7475 27.3371 29.141 27.6637C29.5346 27.9903 29.9928 28.23 30.4855 28.367C30.9783 28.5039 31.4944 28.535 32 28.4583C32.4841 28.3695 32.9425 28.1746 33.3423 27.8876C33.7421 27.6007 34.0734 27.2287 34.3124 26.7985C34.5514 26.3683 34.6922 25.8905 34.7246 25.3994C34.7571 24.9084 34.6804 24.4162 34.5 23.9583C34.2208 23.3403 33.7701 22.8155 33.2013 22.4462C32.6326 22.0769 31.9698 21.8786 31.2917 21.875Z" fill="black"/>
<path fill-rule="evenodd" clip-rule="evenodd" d="M49.3334 67.7083C49.5088 67.6927 49.6793 67.6424 49.8352 67.5605C49.991 67.4786 50.1291 67.3666 50.2415 67.231C50.3538 67.0954 50.4382 66.9389 50.4897 66.7705C50.5412 66.6021 50.5589 66.4252 50.5417 66.25C50.5417 63 51 59.75 51.0417 56.4583C51.0417 54.5417 51.0417 52.625 50.8334 50.7083C50.6676 47.8496 50.6676 44.9837 50.8334 42.125C50.8689 41.9307 50.8659 41.7314 50.8244 41.5383C50.7829 41.3453 50.7038 41.1622 50.5916 40.9997C50.4794 40.8372 50.3363 40.6984 50.1705 40.5912C50.0046 40.484 49.8193 40.4106 49.625 40.375C49.4308 40.3394 49.2314 40.3425 49.0384 40.3839C48.8453 40.4254 48.6623 40.5045 48.4998 40.6167C48.3373 40.7289 48.1985 40.872 48.0913 41.0379C47.9841 41.2037 47.9106 41.3891 47.875 41.5833C47.0677 44.4605 46.5101 47.402 46.2084 50.375V54.1667C46.2227 55.4217 46.3201 56.6745 46.5 57.9167C46.875 60.8333 47.625 63.625 48.2084 66.25C48.1723 66.5911 48.2691 66.933 48.4786 67.2046C48.6881 67.4762 48.9943 67.6566 49.3334 67.7083Z" fill="black"/>
<path fill-rule="evenodd" clip-rule="evenodd" d="M32.5 81.375C32.0967 81.1989 31.6783 81.0594 31.25 80.9583C30.8077 80.8962 30.359 80.8962 29.9167 80.9583C29.7645 80.9396 29.6106 80.9396 29.4584 80.9583C29.4989 80.3896 29.4989 79.8187 29.4584 79.25C29.2591 78.5981 29.0226 77.9581 28.75 77.3333H29.4167C29.7316 77.2892 30.0396 77.2052 30.3334 77.0833C30.6098 76.9696 30.8748 76.8301 31.125 76.6666C34.0833 74.7916 34.375 74.5833 34.25 73.625C34.125 72.6666 33.5834 71.875 29.6667 72.125C29.2649 72.1282 28.8679 72.2133 28.5 72.375C28.1381 72.4969 27.7999 72.6801 27.5 72.9166C27.2865 73.094 27.1036 73.3051 26.9583 73.5416C26.233 72.5448 25.394 71.6359 24.4583 70.8333C25.7764 69.6464 26.6814 68.07 27.0417 66.3333C27.2395 65.1334 27.1582 63.9041 26.8041 62.7408C26.45 61.5774 25.8327 60.5112 25 59.625C24.4954 59.1796 23.9352 58.8014 23.3333 58.5C23.4675 58.4679 23.5946 58.4114 23.7083 58.3333L23.9583 58.0416V57.5C24.251 57.2118 24.608 56.9975 25 56.875C25.1948 56.917 25.3962 56.9188 25.5916 56.88C25.7871 56.8412 25.9726 56.7628 26.1365 56.6496C26.3005 56.5363 26.4396 56.3907 26.5451 56.2216C26.6506 56.0526 26.7203 55.8637 26.75 55.6666C27.0417 53.875 24 52.6666 21.1667 53.875C20.7933 54.0658 20.4662 54.336 20.2083 54.6666C19.806 55.0701 19.5184 55.5735 19.375 56.125C19.375 56.125 19.375 56.5 19.375 56.7083C18.4811 56.5472 17.575 56.4636 16.6667 56.4583C16.25 56.4583 15.875 56.4583 15.4583 56.7083C15.0417 56.9583 15.4583 56.3333 15.4583 56.1666C15.3137 55.7291 15.0715 55.3302 14.75 55C14.5304 54.7576 14.278 54.5472 14 54.375C12.7917 53.7916 9.00001 52.8333 8.62501 55C8.56434 55.397 8.66103 55.8021 8.89449 56.1289C9.12795 56.4558 9.47975 56.6786 9.87501 56.75C10.5417 57.0833 10.5417 57.7916 10.9167 58.2916C9.78596 58.9195 8.78261 59.7533 7.95835 60.75C7.13446 61.7219 6.60632 62.9095 6.43648 64.1722C6.26664 65.435 6.4622 66.7199 7.00001 67.875C7.51593 68.8736 8.22855 69.7575 9.09498 70.4736C9.96141 71.1897 10.9637 71.723 12.0417 72.0416C12.6945 72.2402 13.3639 72.3797 14.0417 72.4583C14.6799 72.5 15.3201 72.5 15.9583 72.4583C16.2466 72.3587 16.495 72.1687 16.6667 71.9166C16.7684 72.2273 16.9716 72.4948 17.2437 72.6762C17.5157 72.8575 17.8408 72.9422 18.1667 72.9166C19.2059 72.9178 20.2414 72.7918 21.25 72.5416C21.5359 72.4196 21.8142 72.2804 22.0833 72.125C23.8654 74.2942 24.8896 76.9864 25 79.7916C25.0287 81.0684 24.8886 82.3433 24.5833 83.5833C24.2842 84.7872 23.7765 85.9295 23.0833 86.9583C22.3072 88.0674 21.3658 89.0511 20.2917 89.875C19.0919 90.7307 17.8394 91.5101 16.5417 92.2083C14.9868 90.8865 13.5887 89.3906 12.375 87.75C11.3978 86.468 10.5859 85.0681 9.95835 83.5833C9.26262 82.0143 8.98969 80.2905 9.16668 78.5833C9.16668 78.5833 9.16668 78.5833 9.41668 78.2916C9.45712 78.0853 9.45712 77.873 9.41668 77.6666C9.3564 77.2103 9.3564 76.748 9.41668 76.2916C9.61595 75.9423 9.67084 75.529 9.56965 75.1398C9.46846 74.7506 9.21919 74.4163 8.87502 74.2083C8.53205 74.0111 8.12506 73.9574 7.74267 74.0588C7.36028 74.1603 7.03345 74.4087 6.83335 74.75C6.83335 75 6.58335 75.2083 6.45835 75.4166C6.31176 75.31 6.15869 75.2126 6.00001 75.125C5.62915 75.0462 5.24588 75.0462 4.87501 75.125C4.48874 75.0612 4.09463 75.0612 3.70835 75.125C0.0833473 76.2916 -0.0833192 77.4166 0.0833474 78.125C0.250014 78.8333 -0.166652 79.4166 4.70835 80.0416C4.47992 81.3232 4.47992 82.6351 4.70835 83.9166C4.40552 84.0893 4.12555 84.2993 3.87501 84.5416C0.750014 87.4166 1.66668 88.3333 1.87501 88.7083C2.08335 89.0833 2.83335 89.5 6.04168 88.7083H6.66668C7.23224 89.5824 7.8736 90.405 8.58335 91.1666C8.77352 91.2771 8.95464 91.4025 9.12502 91.5416C8.75502 91.7193 8.42803 91.9752 8.16668 92.2916C7.88257 92.5882 7.64388 92.9252 7.45835 93.2916C5.62501 96.7916 6.16668 97.4583 6.83335 98.0833C7.50001 98.7083 11.7917 95.8333 11.8333 95.8333C12.0911 95.6015 12.3155 95.3351 12.5 95.0416C12.6869 94.725 12.8404 94.3899 12.9583 94.0416C14.0765 94.6593 15.2479 95.1752 16.4583 95.5833C16.7791 95.7245 17.1426 95.7337 17.4701 95.6089C17.7976 95.4841 18.0628 95.2355 18.2083 94.9166C18.2083 94.9166 18.2083 94.9166 18.2083 94.7083C19.5732 94.2503 20.8972 93.6789 22.1667 93C22.5071 93.4594 22.8833 93.8913 23.2917 94.2916C23.5532 94.4961 23.832 94.6773 24.125 94.8333L25.0417 95.125C28.3334 95.875 28.8334 95.9166 29.2084 95.125C29.5834 94.3333 30.2917 93.875 27.0417 90.9583C26.7643 90.6997 26.4565 90.4758 26.125 90.2916L26.5417 89.9583C27.6395 88.7463 28.4889 87.3307 29.0417 85.7916C29.39 85.9406 29.7532 86.0523 30.125 86.125H31.25C34.9167 86.125 35.4167 86.125 35.875 85.1666C36.3333 84.2083 36.25 83.3333 32.5 81.375ZM20 69.5C19.3766 69.7024 18.7345 69.842 18.0833 69.9166C17.8512 69.9325 17.6256 70.0007 17.4236 70.1162C17.2215 70.2316 17.0482 70.3913 16.9167 70.5833C16.8171 70.346 16.6488 70.1438 16.4335 70.0028C16.2182 69.8617 15.9657 69.7882 15.7083 69.7916L14.2083 69.5833L12.9167 69.125C12.3211 68.8674 11.7846 68.4904 11.3403 68.0175C10.8959 67.5445 10.5533 66.9855 10.3333 66.375C10.2217 65.8892 10.2484 65.3819 10.4104 64.9106C10.5724 64.4392 10.8633 64.0227 11.25 63.7083C11.9343 63.0051 12.7573 62.4517 13.6667 62.0833C14.6131 61.6754 15.6364 61.4764 16.6667 61.5C17.6627 61.4896 18.6563 61.6015 19.625 61.8333C20.4399 62.0049 21.1989 62.3773 21.8333 62.9166C22.2386 63.2485 22.562 63.6692 22.7788 64.146C22.9955 64.6228 23.0997 65.1431 23.0833 65.6666C23.0664 66.2576 22.9238 66.8381 22.6652 67.3697C22.4066 67.9014 22.0378 68.3719 21.5833 68.75C21.127 69.1041 20.602 69.3595 20.0417 69.5H20Z" fill="#7400F0"/>
<path fill-rule="evenodd" clip-rule="evenodd" d="M99.6667 12.125C99.4167 11.8333 98.75 10.75 95.0417 13.125C94.7357 13.3257 94.4557 13.5636 94.2084 13.8333C94.2248 13.6671 94.2248 13.4996 94.2084 13.3333C93.258 11.9519 92.0393 10.7758 90.625 9.87499C90.625 9.87499 90.625 9.87499 90.625 9.66666C90.8472 9.37257 91.0293 9.05032 91.1667 8.70832C91.3101 8.36799 91.4353 8.02028 91.5417 7.66666C92.5834 3.95832 92.6667 3.49999 91.7917 2.91666C90.9167 2.33332 90.0834 2.20832 87.3334 5.41666C87.0362 5.73398 86.7966 6.10055 86.625 6.49999C86.4063 6.8894 86.2515 7.31145 86.1667 7.74999C86.1873 7.90207 86.1873 8.05624 86.1667 8.20832C85.6394 7.998 85.096 7.83079 84.5417 7.70832C83.8714 7.73652 83.2034 7.8061 82.5417 7.91666V7.24999C82.5834 6.94586 82.5834 6.63746 82.5417 6.33332C82.5031 6.01729 82.4189 5.70851 82.2917 5.41666C81.2917 2.08332 81.1667 1.74999 80.2084 1.62499C79.25 1.49999 78.3334 1.62499 77.5834 5.79166C77.5196 6.17793 77.5196 6.57205 77.5834 6.95832C77.6024 7.34477 77.6869 7.72518 77.8334 8.08332C77.8334 8.37499 78.1667 8.54166 78.2917 8.79166C77.0528 9.19921 75.8752 9.77396 74.7917 10.5C73.9905 8.91893 72.7061 7.6345 71.125 6.83332C70.0398 6.36164 68.8626 6.13925 67.68 6.18251C66.4974 6.22577 65.3396 6.53359 64.2917 7.08332C63.7447 7.45604 63.2415 7.88934 62.7917 8.37499C62.8074 8.25048 62.8074 8.1245 62.7917 7.99999V7.70832C62.7917 7.70832 62.3334 7.70832 62.2917 7.37499C61.9167 5.87499 62.5417 5.04166 61.2917 4.49999C60.0417 3.95832 57.7084 6.37499 58.125 9.41666C58.2231 9.81854 58.3924 10.1996 58.625 10.5417C58.9059 11.0502 59.3248 11.4691 59.8334 11.75C60.0969 11.7694 60.3615 11.7694 60.625 11.75C60.1546 12.5778 59.7505 13.4416 59.4167 14.3333C59.3752 14.749 59.3752 15.1677 59.4167 15.5833H58.875C58.4076 15.6334 57.9545 15.775 57.5417 16C57.2454 16.1461 56.9773 16.3436 56.75 16.5833C55.875 17.5417 54 20.75 55.9584 21.875C57.1667 22.4583 56.9167 21.625 59.75 20.5417C60.0599 21.7951 60.5965 22.9813 61.3334 24.0417C62.0607 25.0838 63.0707 25.8964 64.2445 26.3836C65.4183 26.8708 66.7068 27.0124 67.9584 26.7917C69.0572 26.5522 70.0962 26.0929 71.0128 25.4412C71.9294 24.7896 72.7046 23.9592 73.2917 23C73.6417 22.4185 73.9347 21.8045 74.1667 21.1667C74.4098 20.5758 74.5913 19.9614 74.7084 19.3333C74.7636 19.1331 74.7697 18.9225 74.7262 18.7194C74.6826 18.5163 74.5908 18.3267 74.4584 18.1667C74.7888 18.1452 75.1028 18.0151 75.3516 17.7965C75.6003 17.578 75.7697 17.2833 75.8334 16.9583C76.0972 15.9513 76.2371 14.9159 76.25 13.875C76.2663 13.5697 76.2663 13.2637 76.25 12.9583C78.6351 12.0666 81.2321 11.907 83.7084 12.5C84.9545 12.7882 86.1489 13.266 87.25 13.9167C88.3365 14.486 89.2995 15.2649 90.0834 16.2083C90.9843 17.2311 91.703 18.4008 92.2084 19.6667C92.7194 21.0293 93.1507 22.4205 93.5 23.8333C91.8203 24.9876 90.0176 25.9518 88.125 26.7083C86.6732 27.2916 85.1653 27.7245 83.625 28C81.8949 28.2456 80.1307 28.0448 78.5 27.4167C78.5 27.4167 78.5 27.4167 78.5 27.1667C78.3358 27.1261 78.1642 27.1261 78 27.1667C77.5131 26.9935 77.0396 26.7846 76.5834 26.5417C76.447 26.3966 76.2824 26.281 76.0997 26.202C75.9169 26.123 75.72 26.0822 75.5209 26.0822C75.3218 26.0822 75.1248 26.123 74.9421 26.202C74.7594 26.281 74.5947 26.3966 74.4584 26.5417C74.3185 26.681 74.2076 26.8466 74.1319 27.0289C74.0562 27.2113 74.0172 27.4067 74.0172 27.6042C74.0172 27.8016 74.0562 27.9971 74.1319 28.1794C74.2076 28.3617 74.3185 28.5273 74.4584 28.6667C74.6213 28.8515 74.8028 29.0191 75 29.1667C75 29.1667 74.6667 29.1667 74.5417 29.5833C74.3229 29.8976 74.1673 30.2514 74.0834 30.625C74.0227 30.9975 74.0227 31.3774 74.0834 31.75C74.0834 35.5833 75.2917 35.9167 76.0417 35.9167C76.0417 35.9167 77.25 36.5 79.0834 31.75C80.2932 32.2332 81.5741 32.5147 82.875 32.5833C82.963 32.9294 83.0888 33.2647 83.25 33.5833C85.25 37.3333 86.375 36.7083 86.7084 36.5833C87.0417 36.4583 87.7084 35.875 87.9167 32.4167C87.9368 32.181 87.9368 31.944 87.9167 31.7083C88.923 31.4501 89.89 31.0577 90.7917 30.5417C90.9668 30.4132 91.1337 30.274 91.2917 30.125C91.4156 30.5043 91.5834 30.8679 91.7917 31.2083C92.0219 31.5541 92.2872 31.8753 92.5834 32.1667C95.5 34.8333 96.4584 34.5 97.0417 34C97.625 33.5 95.8334 29.1667 95.8334 29.1667C95.6628 28.886 95.4676 28.6211 95.25 28.375C94.9793 28.1142 94.6865 27.8772 94.375 27.6667C95.2749 26.7464 96.0841 25.7418 96.7917 24.6667C97.0289 24.4121 97.1609 24.0771 97.1609 23.7292C97.1609 23.3812 97.0289 23.0462 96.7917 22.7917H96.5417C96.4566 21.3871 96.2474 19.9927 95.9167 18.625C96.4601 18.4093 96.9889 18.1588 97.5 17.875C97.7558 17.6746 97.9929 17.4515 98.2084 17.2083C98.3993 16.9458 98.5666 16.667 98.7084 16.375C100 13.375 100.292 12.875 99.6667 12.125ZM71.6667 18.75C71.5331 19.2187 71.3369 19.6671 71.0834 20.0833C70.883 20.5117 70.6158 20.9056 70.2917 21.25C69.8949 21.7581 69.398 22.1793 68.8318 22.4874C68.2656 22.7956 67.6421 22.9843 67 23.0417C66.502 23.0222 66.0194 22.8635 65.607 22.5836C65.1945 22.3038 64.8688 21.9139 64.6667 21.4583C64.1653 20.6212 63.8402 19.6905 63.7112 18.7232C63.5823 17.756 63.6522 16.7726 63.9167 15.8333C64.1425 14.869 64.5074 13.9426 65 13.0833C65.374 12.3179 65.9504 11.6695 66.6667 11.2083C67.0942 10.899 67.5875 10.6929 68.108 10.6061C68.6285 10.5194 69.162 10.5543 69.6667 10.7083C70.2283 10.8742 70.7486 11.1566 71.1938 11.5371C71.6389 11.9176 71.9988 12.3877 72.25 12.9167C72.4534 13.4227 72.5798 13.9564 72.625 14.5C72.687 15.1513 72.687 15.807 72.625 16.4583C72.5756 16.6878 72.584 16.926 72.6495 17.1515C72.7149 17.377 72.8354 17.5826 73 17.75C72.7023 17.7605 72.4148 17.862 72.1764 18.0408C71.9381 18.2195 71.7602 18.4671 71.6667 18.75Z" fill="#252525"/>
<path fill-rule="evenodd" clip-rule="evenodd" d="M9.54168 53.2084C9.71681 53.203 9.88915 53.1631 10.0489 53.0911C10.2086 53.0191 10.3525 52.9162 10.4725 52.7886C10.5924 52.6609 10.6861 52.5108 10.748 52.3469C10.8099 52.183 10.8389 52.0085 10.8334 51.8334C10.8334 47.25 11.5834 42.7084 11.875 38.125V35.0417H30.6667C34.8334 35.0417 38.7084 34.6667 42.75 34.5C48.7917 34.2084 54.7917 33.9167 60.8334 34.125C61.0303 34.1414 61.2286 34.1189 61.4169 34.0587C61.6052 33.9985 61.7797 33.9018 61.9306 33.7741C62.0815 33.6464 62.2058 33.4902 62.2963 33.3145C62.3869 33.1388 62.4419 32.947 62.4584 32.75C62.4748 32.553 62.4522 32.3547 62.392 32.1665C62.3318 31.9782 62.2351 31.8036 62.1074 31.6527C61.9797 31.5019 61.8236 31.3776 61.6479 31.287C61.4722 31.1965 61.2803 31.1414 61.0834 31.125C55.1424 30.317 49.1608 29.844 43.1667 29.7084H35.5C32.9167 29.7084 30.4167 29.9584 27.875 30.2084C22.5417 30.75 17.3334 31.5417 12.0834 32.25C12.5 31.1667 12.5 30.1667 12.5 29.1667C12.7805 25.9775 13.3099 22.815 14.0834 19.7084C14.0834 19.7084 14.0834 19.5 14.0834 19.375C15.3784 19.1426 16.6863 18.9895 18 18.9167H27.5C29.875 18.9167 32.25 18.6667 34.625 18.4584C37 18.25 39.2917 17.9167 41.6667 17.7917C44.0417 17.6667 45.8334 17.7917 47.7917 17.7917C48.1895 17.8248 48.5842 17.6986 48.889 17.4407C49.1937 17.1829 49.3835 16.8145 49.4167 16.4167C49.4498 16.0189 49.3236 15.6242 49.0657 15.3194C48.8079 15.0147 48.4395 14.8248 48.0417 14.7917C43.9056 14.1316 39.7292 13.7557 35.5417 13.6667C32.75 13.6667 29.9584 13.9167 27.2084 14.0834C24.4584 14.25 21.7084 14.875 18.875 15.4167C13 16.6667 10.2917 16.3334 7.66669 30.2917C7.37502 32 7.16669 33.6667 7.04169 35.375C6.9376 37.0679 6.9376 38.7655 7.04169 40.4584C7.04169 44.375 7.79169 48.2084 8.29169 52.125C8.34767 52.4199 8.50154 52.6874 8.72839 52.884C8.95524 53.0806 9.2418 53.1949 9.54168 53.2084Z" fill="black"/>
<path fill-rule="evenodd" clip-rule="evenodd" d="M90.5 49C90.1667 46.625 89.7917 44.25 89.2917 41.9167C89.2716 41.7424 89.2161 41.574 89.1288 41.4218C89.0414 41.2697 88.9239 41.1369 88.7836 41.0316C88.6432 40.9264 88.4829 40.8508 88.3124 40.8095C88.1418 40.7683 87.9647 40.7622 87.7917 40.7917C87.4445 40.8432 87.1316 41.0297 86.921 41.3105C86.7104 41.5913 86.619 41.9439 86.6667 42.2917V47.4583C86.6667 51.625 86.6667 55.7917 86.375 59.7083C86.375 62.7083 86.5834 65.625 86.75 68.5C86.9167 71.375 87.0834 74.2917 87.0834 77.2083C87.0834 80.125 87.0834 81.9583 86.7917 84.375C86.4309 84.229 86.0275 84.229 85.6667 84.375C83.8587 84.931 82.0038 85.3215 80.125 85.5417C77.1667 85.9167 74.2084 85.9583 71.2917 86.0417L64.75 86.2917C61.4167 86.2917 58.125 86.5 54.8334 86.6667C49.25 87 43.7084 87.5 38.1667 88.1667C37.8131 88.1667 37.4739 88.3071 37.2239 88.5572C36.9738 88.8072 36.8334 89.1464 36.8334 89.5C36.8334 89.8536 36.9738 90.1928 37.2239 90.4428C37.4739 90.6928 37.8131 90.8333 38.1667 90.8333C44.875 90.8333 51.4584 91.5417 58.125 91.5417C62.6247 91.4852 67.1177 91.1792 71.5834 90.625C74.5834 90.1667 77.625 89.7917 80.625 89.0833C84.7917 88.1667 89.4167 86.2917 89.625 84.9167C90.6197 80.7652 91.3021 76.545 91.6667 72.2917C91.6667 70.1667 91.875 68.125 91.875 65.875C91.875 63.625 91.875 61.7083 91.625 59.5C91.2084 56 90.9167 52.5 90.5 49Z" fill="black"/>
</svg>
