<svg width="24" height="24" viewBox="0 0 24 24" fill="none" xmlns="http://www.w3.org/2000/svg">
<g clip-path="url(#clip0_117_24)">
<path d="M23.56 0.250001C23.4895 0.171225 23.4032 0.108231 23.3067 0.0651466C23.2102 0.0220626 23.1057 -0.000137798 23 6.43523e-07H0.99997C0.894282 -0.000137798 0.789758 0.0220626 0.69325 0.0651466C0.596742 0.108231 0.510429 0.171225 0.43997 0.250001C0.369295 0.329609 0.316628 0.42353 0.285564 0.525351C0.2545 0.627172 0.24577 0.734498 0.25997 0.840001L2.25997 17.84C2.27014 17.953 2.30722 18.0619 2.36811 18.1575C2.42901 18.2532 2.51194 18.3329 2.60997 18.39L11.61 23.89C11.7275 23.9615 11.8624 23.9994 12 23.9994C12.1375 23.9994 12.2725 23.9615 12.39 23.89L21.39 18.39C21.488 18.3329 21.5709 18.2532 21.6318 18.1575C21.6927 18.0619 21.7298 17.953 21.74 17.84L23.74 0.840001C23.7542 0.734498 23.7454 0.627172 23.7144 0.525351C23.6833 0.42353 23.6306 0.329609 23.56 0.250001ZM19.15 11L15.65 14C15.5502 14.0854 15.4345 14.1502 15.3097 14.1909C15.1848 14.2316 15.0531 14.2472 14.9222 14.237C14.7913 14.2268 14.6636 14.1909 14.5466 14.1314C14.4295 14.0718 14.3253 13.9898 14.24 13.89C14.1546 13.7902 14.0897 13.6746 14.0491 13.5497C14.0084 13.4248 13.9927 13.2931 14.0029 13.1622C14.0132 13.0313 14.0491 12.9037 14.1086 12.7866C14.1682 12.6695 14.2502 12.5654 14.35 12.48L16.9 10.3L14.66 8.62L10.27 13.89C10.1759 14.0029 10.0582 14.0937 9.92512 14.1559C9.79204 14.2181 9.64688 14.2502 9.49997 14.25C9.2836 14.25 9.07307 14.1798 8.89997 14.05L4.89997 11.05C4.78009 10.9601 4.68195 10.8444 4.61279 10.7115C4.54364 10.5785 4.50524 10.4318 4.50044 10.282C4.49564 10.1322 4.52456 9.98331 4.58506 9.84622C4.64556 9.70913 4.73609 9.58739 4.84997 9.49L8.34997 6.49C8.4468 6.39082 8.56319 6.31286 8.69176 6.26105C8.82033 6.20925 8.95826 6.18474 9.0968 6.18908C9.23534 6.19342 9.37147 6.22651 9.49654 6.28626C9.62161 6.34601 9.73289 6.4311 9.82333 6.53615C9.91376 6.64119 9.98137 6.76389 10.0219 6.89645C10.0624 7.02901 10.0749 7.16855 10.0586 7.3062C10.0423 7.44384 9.99751 7.5766 9.92718 7.69604C9.85684 7.81547 9.76244 7.91899 9.64997 8L7.09997 10.2L9.33997 11.88L13.73 6.61C13.8941 6.41254 14.1279 6.28579 14.383 6.256C14.638 6.22621 14.8947 6.29568 15.1 6.45L19.1 9.45C19.2168 9.5437 19.311 9.66244 19.3758 9.79744C19.4406 9.93244 19.4742 10.0803 19.4742 10.23C19.4742 10.3797 19.4406 10.5276 19.3758 10.6626C19.311 10.7976 19.2168 10.9163 19.1 11.01L19.15 11Z" fill="black"/>
</g>
<defs>
<clipPath id="clip0_117_24">
<rect width="24" height="24" fill="white"/>
</clipPath>
</defs>
</svg>
