<svg width="317" height="103" viewBox="0 0 317 103" fill="none" xmlns="http://www.w3.org/2000/svg">
<g filter="url(#filter0_d_66_38)">
<rect x="22.6728" y="1" width="75" height="75" rx="10" transform="rotate(16 22.6728 1)" fill="url(#paint0_linear_66_38)"/>
<rect x="69" y="26.6515" width="75" height="75" rx="10" transform="rotate(-20 69 26.6515)" fill="url(#paint1_linear_66_38)"/>
<rect x="163.593" y="1" width="75" height="75" rx="10" transform="rotate(12 163.593 1)" fill="url(#paint2_linear_66_38)"/>
<rect x="221" y="23.1763" width="75" height="75" rx="10" transform="rotate(-18 221 23.1763)" fill="url(#paint3_linear_66_38)"/>
<path d="M28.8588 63.8205L40.8866 21.8746L55.5513 26.0796C58.4733 26.9175 60.7384 28.1137 62.3466 29.6684C63.9588 31.2094 64.9863 32.9596 65.4293 34.9189C65.8762 36.8646 65.806 38.8616 65.2187 40.9097C64.7019 42.7121 63.9543 44.1084 62.9758 45.0986C62.011 46.0928 60.9118 46.7825 59.6783 47.1676C58.4585 47.5567 57.2008 47.7428 55.9053 47.7259L55.7878 48.1356C57.0478 48.5855 58.2089 49.4061 59.2712 50.5973C60.3334 51.7886 61.0822 53.2741 61.5176 55.0539C61.9529 56.8338 61.8535 58.8297 61.2192 61.0417C60.6162 63.1445 59.5961 64.8986 58.1587 66.304C56.7213 67.7094 54.8308 68.608 52.4871 68.9999C50.1434 69.3918 47.3194 69.114 44.015 68.1665L28.8588 63.8205ZM35.2302 60.7711L45.3071 63.6606C48.6251 64.612 51.1644 64.6457 52.9252 63.7615C54.7036 62.8676 55.857 61.499 56.3856 59.6557C56.7928 58.2357 56.8068 56.8211 56.4277 55.412C56.0525 53.9893 55.2996 52.7242 54.1689 51.6168C53.0422 50.4958 51.5641 49.673 49.7344 49.1483L39.4117 46.1883L35.2302 60.7711ZM40.6803 41.7643L50.1018 44.4659C51.631 44.9044 53.0963 44.9995 54.4974 44.7511C55.9122 44.5066 57.1381 43.9419 58.175 43.0571C59.2256 42.1762 59.9623 40.9984 60.3851 39.5237C60.9137 37.6804 60.7202 35.9329 59.8048 34.2814C58.8932 32.6162 57.0447 31.3842 54.2592 30.5855L44.6739 27.837L40.6803 41.7643Z" fill="white"/>
<path d="M113.748 74.9489L98.8237 33.9442L103.789 32.1369L117.11 68.7369L136.171 61.7993L137.774 66.2041L113.748 74.9489Z" fill="white"/>
<path d="M212.227 48.9964C211.27 53.4981 209.631 57.2157 207.308 60.1492C204.986 63.0827 202.218 65.1374 199.006 66.3134C195.793 67.4894 192.367 67.6905 188.727 66.9167C185.086 66.1429 182.038 64.5656 179.582 62.1847C177.125 59.8038 175.433 56.801 174.504 53.1765C173.575 49.5519 173.59 45.4888 174.546 40.9871C175.503 36.4854 177.143 32.7678 179.466 29.8343C181.788 26.9008 184.556 24.8461 187.768 23.6701C190.981 22.4941 194.407 22.293 198.047 23.0668C201.687 23.8405 204.736 25.4179 207.192 27.7988C209.649 30.1797 211.341 33.1825 212.27 36.807C213.198 40.4316 213.184 44.4947 212.227 48.9964ZM207.225 47.9332C208.011 44.2374 208.056 40.9867 207.36 38.1813C206.677 35.3787 205.426 33.1015 203.606 31.3495C201.799 29.6004 199.604 28.4513 197.019 27.9019C194.435 27.3526 191.955 27.508 189.58 28.3681C187.218 29.2312 185.148 30.8026 183.371 33.0824C181.608 35.3651 180.334 38.3544 179.548 42.0503C178.763 45.7461 178.711 48.9953 179.393 51.7978C180.089 54.6033 181.341 56.8805 183.147 58.6296C184.968 60.3816 187.17 61.5322 189.754 62.0815C192.339 62.6309 194.812 62.474 197.173 61.6109C199.549 60.7508 201.618 59.1794 203.382 56.8967C205.159 54.6169 206.44 51.6291 207.225 47.9332Z" fill="white"/>
<path d="M278.031 34.9519C277.141 33.7323 276.156 32.7007 275.076 31.857C274.004 30.9953 272.844 30.3419 271.594 29.8967C270.357 29.4471 269.045 29.2238 267.657 29.2267C266.269 29.2297 264.825 29.4747 263.326 29.962C260.867 30.7608 258.837 32.1222 257.237 34.0461C255.637 35.97 254.644 38.3612 254.258 41.2197C253.873 44.0782 254.264 47.3042 255.431 50.8977C256.599 54.4911 258.186 57.3286 260.191 59.4102C262.197 61.4917 264.433 62.8339 266.899 63.4365C269.365 64.0392 271.881 63.9236 274.448 63.0896C276.826 62.317 278.755 61.1301 280.236 59.5287C281.726 57.9094 282.675 56.003 283.082 53.8095C283.499 51.5981 283.295 49.2225 282.469 46.6828L284.115 46.5066L271.632 50.5625L270.184 46.1044L285.99 40.9687L287.438 45.4268C288.549 48.8447 288.785 52.0537 288.147 55.054C287.522 58.05 286.159 60.6585 284.058 62.8795C281.966 65.0827 279.272 66.7198 275.975 67.7908C272.301 68.9847 268.791 69.1692 265.446 68.3443C262.115 67.5149 259.155 65.7585 256.565 63.0751C253.989 60.3873 251.99 56.8549 250.568 52.4779C249.501 49.1951 248.981 46.1006 249.008 43.1945C249.044 40.2705 249.571 37.6197 250.591 35.2422C251.611 32.8647 253.068 30.8229 254.963 29.1169C256.859 27.4108 259.137 26.1254 261.798 25.2607C263.987 24.5496 266.134 24.2178 268.24 24.2652C270.356 24.2948 272.352 24.6693 274.229 25.3888C276.115 26.0904 277.827 27.1096 279.367 28.4464C280.902 29.7697 282.186 31.3764 283.218 33.2664L278.031 34.9519Z" fill="white"/>
</g>
<defs>
<filter id="filter0_d_66_38" x="0.366417" y="2.59802" width="316.541" height="99.716" filterUnits="userSpaceOnUse" color-interpolation-filters="sRGB">
<feFlood flood-opacity="0" result="BackgroundImageFix"/>
<feColorMatrix in="SourceAlpha" type="matrix" values="0 0 0 0 0 0 0 0 0 0 0 0 0 0 0 0 0 0 127 0" result="hardAlpha"/>
<feOffset dy="4"/>
<feGaussianBlur stdDeviation="2"/>
<feComposite in2="hardAlpha" operator="out"/>
<feColorMatrix type="matrix" values="0 0 0 0 0 0 0 0 0 0 0 0 0 0 0 0 0 0 0.25 0"/>
<feBlend mode="normal" in2="BackgroundImageFix" result="effect1_dropShadow_66_38"/>
<feBlend mode="normal" in="SourceGraphic" in2="effect1_dropShadow_66_38" result="shape"/>
</filter>
<linearGradient id="paint0_linear_66_38" x1="27.043" y1="6.96621" x2="128.874" y2="153.085" gradientUnits="userSpaceOnUse">
<stop/>
<stop offset="1" stop-color="#A9A9A9"/>
</linearGradient>
<linearGradient id="paint1_linear_66_38" x1="73.3702" y1="32.6177" x2="175.201" y2="178.737" gradientUnits="userSpaceOnUse">
<stop/>
<stop offset="1" stop-color="#A9A9A9"/>
</linearGradient>
<linearGradient id="paint2_linear_66_38" x1="167.964" y1="6.96621" x2="269.794" y2="153.085" gradientUnits="userSpaceOnUse">
<stop/>
<stop offset="1" stop-color="#A9A9A9"/>
</linearGradient>
<linearGradient id="paint3_linear_66_38" x1="225.37" y1="29.1425" x2="327.201" y2="175.261" gradientUnits="userSpaceOnUse">
<stop/>
<stop offset="1" stop-color="#A9A9A9"/>
</linearGradient>
</defs>
</svg>
